<svg width="138" height="93" viewBox="0 0 138 93" fill="none" xmlns="http://www.w3.org/2000/svg">
<path d="M11 18C11 16.3431 12.3431 15 14 15V15C15.6569 15 17 16.3431 17 18V92.027H11V18Z" fill="url(#paint0_linear_42_328)"/>
<path d="M27 35.0945C27 33.4376 28.3431 32.0945 30 32.0945V32.0945C31.6569 32.0945 33 33.4376 33 35.0945V92.4323H27V35.0945Z" fill="url(#paint1_linear_42_328)"/>
<path d="M59 18.4055C59 16.7487 60.3431 15.4055 62 15.4055V15.4055C63.6569 15.4055 65 16.7487 65 18.4055V92.4325H59V18.4055Z" fill="url(#paint2_linear_42_328)"/>
<path d="M123 18.4055C123 16.7487 124.343 15.4055 126 15.4055V15.4055C127.657 15.4055 129 16.7487 129 18.4055V92.4325H123V18.4055Z" fill="url(#paint3_linear_42_328)"/>
<path d="M75 3C75 1.34315 76.3431 0 78 0V0C79.6569 0 81 1.34315 81 3V92.4324H75V3Z" fill="url(#paint4_linear_42_328)"/>
<path d="M43 35.0945C43 33.4376 44.3431 32.0945 46 32.0945V32.0945C47.6569 32.0945 49 33.4376 49 35.0945V92.4323H43V35.0945Z" fill="url(#paint5_linear_42_328)"/>
<path d="M107 35.0945C107 33.4376 108.343 32.0945 110 32.0945V32.0945C111.657 32.0945 113 33.4376 113 35.0945V92.4323H107V35.0945Z" fill="url(#paint6_linear_42_328)"/>
<path d="M91 50.5C91 48.8431 92.3431 47.5 94 47.5V47.5C95.6569 47.5 97 48.8431 97 50.5V92.4324H91V50.5Z" fill="url(#paint7_linear_42_328)"/>
<line opacity="0.4" y1="92.5" x2="138" y2="92.5" stroke="#2C56A2"/>
<defs>
<linearGradient id="paint0_linear_42_328" x1="14" y1="15" x2="14" y2="92.027" gradientUnits="userSpaceOnUse">
<stop stop-color="#2C56A2"/>
<stop offset="0.471589" stop-color="#23378B"/>
</linearGradient>
<linearGradient id="paint1_linear_42_328" x1="30" y1="32.0945" x2="30" y2="92.4323" gradientUnits="userSpaceOnUse">
<stop stop-color="#2C56A2"/>
<stop offset="0.471589" stop-color="#23378B"/>
</linearGradient>
<linearGradient id="paint2_linear_42_328" x1="62" y1="15.4055" x2="62" y2="92.4325" gradientUnits="userSpaceOnUse">
<stop stop-color="#2C56A2"/>
<stop offset="0.471589" stop-color="#23378B"/>
</linearGradient>
<linearGradient id="paint3_linear_42_328" x1="126" y1="15.4055" x2="126" y2="92.4325" gradientUnits="userSpaceOnUse">
<stop stop-color="#2C56A2"/>
<stop offset="0.471589" stop-color="#23378B"/>
</linearGradient>
<linearGradient id="paint4_linear_42_328" x1="78" y1="0" x2="78" y2="92.4324" gradientUnits="userSpaceOnUse">
<stop stop-color="#2C56A2"/>
<stop offset="0.471589" stop-color="#23378B"/>
</linearGradient>
<linearGradient id="paint5_linear_42_328" x1="46" y1="32.0945" x2="46" y2="92.4323" gradientUnits="userSpaceOnUse">
<stop stop-color="#2C56A2"/>
<stop offset="0.471589" stop-color="#23378B"/>
</linearGradient>
<linearGradient id="paint6_linear_42_328" x1="110" y1="32.0945" x2="110" y2="92.4323" gradientUnits="userSpaceOnUse">
<stop stop-color="#2C56A2"/>
<stop offset="0.471589" stop-color="#23378B"/>
</linearGradient>
<linearGradient id="paint7_linear_42_328" x1="94" y1="47.5" x2="94" y2="92.4324" gradientUnits="userSpaceOnUse">
<stop stop-color="#2C56A2"/>
<stop offset="0.471589" stop-color="#23378B"/>
</linearGradient>
</defs>
</svg>
