<svg width="140" height="80" viewBox="0 0 140 80" fill="none" xmlns="http://www.w3.org/2000/svg">
<path d="M0 59H2.04569C4.40348 59 6.55963 57.6701 7.61787 55.5632L8.85602 53.098C10.1797 50.4626 13.7097 49.9244 15.7585 52.0456V52.0456C16.565 52.8805 17.676 53.3521 18.8367 53.3521H19.293C21.4794 53.3521 23.4462 52.0227 24.2614 49.9939L27.4295 42.1093C28.326 39.8783 31.3087 39.4687 32.7734 41.3754V41.3754C33.9837 42.9509 36.3417 43.0004 37.617 41.477L39.9726 38.6629C40.3798 38.1766 40.8609 37.7573 41.3983 37.4204L42.1473 36.9509C44.8978 35.2269 48.2622 34.7847 51.3648 35.7394L54.4483 36.6882C56.89 37.4395 59.5441 36.6493 61.1772 34.6848V34.6848C62.7304 32.8165 65.2158 32.0021 67.5733 32.5889L68.3643 32.7857C69.3245 33.0247 70.2101 33.4991 70.941 34.1661V34.1661C73.2603 36.2825 76.8242 36.2353 79.0866 34.0581L80.3978 32.7964C81.1972 32.0271 82.1513 31.437 83.1966 31.0653L85.8501 30.122C86.9973 29.7141 88.2765 29.9863 89.1582 30.8259V30.8259C90.846 32.433 93.6285 31.7773 94.4211 29.5857L97.5861 20.8333C98.2569 18.9786 99.6162 17.4535 101.382 16.5746L101.927 16.3032C103.703 15.4195 105.786 15.4051 107.574 16.2641V16.2641C109.723 17.2972 112.268 17.0547 114.184 15.6345L118.61 12.3533C120.296 11.1034 122.512 10.8221 124.456 11.6109V11.6109C126.196 12.3163 128.165 12.1698 129.781 11.2147L131.91 9.95621C133.415 9.06684 134.686 7.83221 135.619 6.35432L139 1" stroke="#47AF67" stroke-width="2"/>
<path opacity="0.5" d="M8.85602 53.098L6.90047 56.9915C6.28203 58.2228 5.02197 59 3.64407 59C1.63151 59 0 60.6315 0 62.6441V79H139V1L135.619 6.35432C134.686 7.83221 133.415 9.06684 131.91 9.9562L129.781 11.2147C128.165 12.1698 126.196 12.3163 124.456 11.6109C122.512 10.8221 120.296 11.1034 118.61 12.3533L114.184 15.6345C112.268 17.0547 109.723 17.2972 107.574 16.2641C105.786 15.4051 103.703 15.4195 101.927 16.3032L101.382 16.5746C99.6162 17.4535 98.2569 18.9786 97.5862 20.8333L94.4211 29.5857C93.6285 31.7773 90.846 32.433 89.1582 30.8259C88.2765 29.9863 86.9973 29.7141 85.8501 30.122L83.1966 31.0653C82.1513 31.437 81.1972 32.0271 80.3978 32.7964L79.0866 34.0581C76.8242 36.2353 73.2603 36.2825 70.941 34.1661C70.2101 33.4991 69.3245 33.0247 68.3643 32.7857L67.5733 32.5889C65.2158 32.0021 62.7304 32.8165 61.1772 34.6848C59.5441 36.6493 56.89 37.4395 54.4483 36.6882L51.3648 35.7394C48.2622 34.7847 44.8978 35.2269 42.1473 36.9509L41.3983 37.4204C40.8609 37.7573 40.3798 38.1766 39.9726 38.6629L37.617 41.477C36.3417 43.0004 33.9837 42.9509 32.7734 41.3754C31.3087 39.4687 28.326 39.8783 27.4295 42.1093L24.2614 49.9939C23.4462 52.0227 21.4794 53.3521 19.293 53.3521H18.8367C17.676 53.3521 16.565 52.8805 15.7585 52.0456C13.7097 49.9244 10.1797 50.4626 8.85602 53.098Z" fill="url(#paint0_linear_42_294)"/>
<line opacity="0.4" x1="1" y1="79.5" x2="139" y2="79.5" stroke="#3D9259"/>
<defs>
<linearGradient id="paint0_linear_42_294" x1="69.5" y1="1" x2="69.5" y2="79" gradientUnits="userSpaceOnUse">
<stop stop-color="#47AF67"/>
<stop offset="1" stop-color="#47AF67" stop-opacity="0"/>
</linearGradient>
</defs>
</svg>
