<svg width="119" height="26" viewBox="0 0 119 26" fill="none" xmlns="http://www.w3.org/2000/svg">
<path fill-rule="evenodd" clip-rule="evenodd" d="M112.17 17.099C110.195 17.099 108.578 15.6041 108.578 13.3748C108.578 11.2005 110.195 9.73276 112.17 9.73276C114.146 9.73276 115.791 11.2005 115.791 13.3748C115.791 15.6041 114.146 17.099 112.17 17.099ZM112.17 6.79736C108.522 6.79736 105.368 9.35225 105.368 13.3748C105.368 17.398 108.522 20.0344 112.17 20.0344C115.819 20.0344 119 17.398 119 13.3748C119 9.35225 115.819 6.79736 112.17 6.79736Z" fill="white"/>
<path fill-rule="evenodd" clip-rule="evenodd" d="M96.0889 16.8641C94.076 16.8641 92.428 15.3195 92.428 13.2418C92.428 11.1647 94.076 9.67341 96.0889 9.67341C97.961 9.67341 99.8611 11.0582 99.8611 13.2418C99.8611 15.426 98.0722 16.8641 96.0889 16.8641ZM99.9169 8.68756C98.9943 7.40985 97.234 6.79736 95.5575 6.79736C92.12 6.79736 89.1582 9.27396 89.1582 13.2685C89.1582 17.2363 92.1485 19.7667 95.586 19.7667C97.1781 19.7667 98.9943 19.1276 99.9169 17.8494V18.0358C99.9169 21.5781 98.3516 22.9623 95.8369 22.9623C95.7156 22.9623 95.5949 22.9565 95.4742 22.9448V25.7436C95.5949 25.7494 95.715 25.7585 95.8369 25.7585C100.308 25.7585 103.158 23.3352 103.158 17.7423V7.06366H99.9169V8.68756Z" fill="white"/>
<path fill-rule="evenodd" clip-rule="evenodd" d="M78.0439 16.8235C74.4991 17.052 71.4194 14.506 71.1776 11.1474C70.9364 7.78892 73.6242 4.871 77.1684 4.64245C80.7131 4.41389 83.7934 6.95995 84.0347 10.3185C84.1128 11.4058 83.88 12.4452 83.4144 13.3637L79.4946 10.124L77.2257 12.588L81.145 15.8283C80.247 16.3898 79.1921 16.7494 78.0439 16.8235ZM88.4206 17.5027L86.019 15.5171C87.0188 13.9418 87.5429 12.0739 87.4012 10.1011C87.0323 4.97596 82.3489 1.1044 76.9395 1.45282C71.5301 1.80178 67.4433 6.23966 67.8122 11.3648C68.1799 16.4899 72.8639 20.3615 78.2727 20.0125C80.3555 19.8783 82.2381 19.1335 83.7496 17.9811L86.1512 19.9667L88.4206 17.5027Z" fill="#47AF67"/>
<path fill-rule="evenodd" clip-rule="evenodd" d="M55.6954 12.3148C56.0903 10.3851 57.4984 9.56968 59.2732 9.56968C61.1037 9.56968 62.4831 10.5753 62.6796 12.3148H55.6954ZM59.2157 6.79736C55.4701 6.79736 52.3154 9.35225 52.3154 13.402C52.3154 17.3708 55.3012 20.0344 59.2444 20.0344C61.6382 20.0344 63.9469 19.0554 65.1585 17.2077L62.99 15.6041C62.2015 16.6364 60.8491 17.18 59.414 17.18C57.4697 17.18 56.0616 16.2836 55.6954 14.5169H65.8625C65.9183 14.0543 65.947 13.6466 65.947 13.2933C65.947 9.32507 62.99 6.79736 59.2157 6.79736Z" fill="white"/>
<path fill-rule="evenodd" clip-rule="evenodd" d="M45.4965 6.79736C44.1891 6.79736 42.1595 7.28333 41.1307 9.28174C40.38 7.66131 38.823 6.79736 36.9323 6.79736C35.3192 6.79736 33.5397 7.63431 33.067 9.22721V7.06735H29.8418V19.6766H33.067V13.0345C33.067 10.6317 34.569 9.82171 36.0704 9.82171C37.4606 9.82171 38.545 10.8201 38.545 12.845V19.6766H41.7702V13.3315L41.7986 13.4395C41.6596 11.1716 42.8268 9.82171 44.6902 9.82171C46.1916 9.82171 47.2759 10.8201 47.2759 12.845V19.6766H50.4734V12.6025C50.4734 8.93023 48.7495 6.79736 45.4965 6.79736Z" fill="white"/>
<path fill-rule="evenodd" clip-rule="evenodd" d="M21.1705 17.099C19.1952 17.099 17.5771 15.6041 17.5771 13.3748C17.5771 11.2005 19.1952 9.73276 21.1705 9.73276C23.1452 9.73276 24.7914 11.2005 24.7914 13.3748C24.7914 15.6041 23.1452 17.099 21.1705 17.099ZM21.1705 6.79736C17.5228 6.79736 14.3682 9.35225 14.3682 13.3748C14.3682 17.398 17.5228 20.0344 21.1705 20.0344C24.8183 20.0344 27.9997 17.398 27.9997 13.3748C27.9997 9.35225 24.8183 6.79736 21.1705 6.79736Z" fill="white"/>
<path fill-rule="evenodd" clip-rule="evenodd" d="M7.31692 6.7179C5.99886 6.7179 3.89645 7.39519 3.25172 8.91233V0.215332H0V19.6417H3.25172V13.0303C3.25172 10.592 5.10239 9.80636 6.58809 9.80636C8.04575 9.80636 9.3072 10.8364 9.3072 12.8412V19.6417H12.5595V12.5432C12.5595 8.85814 10.6808 6.7179 7.31692 6.7179Z" fill="white"/>
</svg>
