<svg width="160" height="41" viewBox="0 0 160 41" fill="none" xmlns="http://www.w3.org/2000/svg">
<path fill-rule="evenodd" clip-rule="evenodd" d="M143.368 39.8543C143.146 35.3363 142.719 26.6699 142.461 21.9111C142.005 22.1674 141.216 22.61 140.199 23.1805C138.213 23.353 136.078 23.38 133.861 23.2387C130.655 23.0348 127.66 22.5025 125.068 21.7376L125.949 13.7164C132.955 15.8034 141.033 18.2283 141.033 18.2283C141.033 18.2283 141.389 17.6166 141.98 16.6042C141.227 14.8952 140.54 13.0347 139.952 11.0626C138.769 7.09506 138.159 3.26551 138.089 0L144.735 0.28878C144.829 4.38716 144.923 8.7547 144.981 11.4585C146.401 9.0215 148.01 6.25915 149.415 3.83665L153.705 6.80324C152.135 9.51486 150.135 12.9501 148.393 15.938C149.209 15.9441 150.04 15.9735 150.883 16.0273C153.771 16.2112 156.488 16.661 158.893 17.3068L159.428 22.1647C154.445 21.486 148.524 20.6677 145.852 20.2978C145.579 20.7654 145.381 21.1063 145.177 21.4556C146.459 24.2599 147.537 27.6948 148.234 31.476C148.794 34.5217 149.046 37.4548 149.021 40.0995L143.368 39.8543Z" fill="#57AA27"/>
<mask id="mask0_35_935" style="mask-type:alpha" maskUnits="userSpaceOnUse" x="0" y="25" width="9" height="13">
<path fill-rule="evenodd" clip-rule="evenodd" d="M0 25.2142H8.29053V37.4923H0V25.2142Z" fill="white"/>
</mask>
<g mask="url(#mask0_35_935)">
<path fill-rule="evenodd" clip-rule="evenodd" d="M5.0398 26.887V37.4923H3.249V26.887H-0.000976562V25.2142H8.28977V26.887H5.0398Z" fill="white"/>
</g>
<path fill-rule="evenodd" clip-rule="evenodd" d="M16.5485 37.4924V32.1297C16.5485 30.8018 15.8024 30.2155 14.8572 30.2155C13.9121 30.2155 13.1493 30.8191 13.1493 32.1297V37.4924H11.458V25.2144H13.1493V29.6286C13.7297 28.9744 14.4924 28.6462 15.3215 28.6462C17.1952 28.6462 18.2398 29.9568 18.2398 31.8538V37.4924H16.5485Z" fill="white"/>
<path fill-rule="evenodd" clip-rule="evenodd" d="M26.9603 31.2158C26.695 30.5605 26.0981 30.1121 25.3022 30.1121C24.5063 30.1121 23.8928 30.5605 23.6275 31.2158C23.4616 31.613 23.4285 31.8711 23.4119 32.4052H27.1925C27.1759 31.8711 27.1261 31.613 26.9603 31.2158ZM23.412 33.6301C23.412 35.1305 24.1748 36.079 25.551 36.079C26.4962 36.079 26.9936 35.803 27.5906 35.1822L28.6684 36.2342C27.8061 37.1309 26.9936 37.5965 25.5179 37.5965C23.412 37.5965 21.7373 36.4405 21.7373 33.1128C21.7373 30.2845 23.1467 28.6462 25.3023 28.6462C27.5574 28.6462 28.8673 30.3708 28.8673 32.8541V33.6301H23.412Z" fill="white"/>
<path fill-rule="evenodd" clip-rule="evenodd" d="M38.2528 37.5963C36.4785 37.5963 35.2018 37.1652 34.0742 35.9758L35.2681 34.7508C36.1303 35.6476 37.0755 35.9235 38.2859 35.9235C39.828 35.9235 40.7234 35.2337 40.7234 34.0432C40.7234 33.5092 40.5742 33.0608 40.2591 32.7676C39.9606 32.475 39.6622 32.3537 38.9658 32.2503L37.5729 32.0439C36.6112 31.9054 35.8484 31.561 35.3344 31.0603C34.7541 30.4912 34.4727 29.7152 34.4727 28.715C34.4727 26.5771 35.9645 25.1107 38.4186 25.1107C39.9772 25.1107 41.0716 25.5252 42.0831 26.5076L40.939 27.6808C40.2094 26.9565 39.3637 26.7318 38.3688 26.7318C36.976 26.7318 36.2138 27.5595 36.2138 28.6466C36.2138 29.0944 36.3459 29.491 36.6609 29.7842C36.9594 30.0601 37.4403 30.2676 37.9875 30.3533L39.3306 30.5608C40.4249 30.7321 41.0384 31.0086 41.5359 31.4742C42.1826 32.0606 42.4976 32.9395 42.4976 33.9915C42.4976 36.2506 40.7234 37.5963 38.2528 37.5963Z" fill="white"/>
<path fill-rule="evenodd" clip-rule="evenodd" d="M51.1031 37.4925V36.6136C50.5228 37.2683 49.7103 37.5966 48.8646 37.5966C48.0029 37.5966 47.2899 37.3028 46.7925 36.8033C46.1453 36.1474 45.9463 35.3202 45.9463 34.3372V28.7498H47.6376V34.0785C47.6376 35.4409 48.3843 36.0273 49.3289 36.0273C50.2741 36.0273 51.07 35.4231 51.07 34.0785V28.7498H52.7613V37.4925H51.1031Z" fill="white"/>
<path fill-rule="evenodd" clip-rule="evenodd" d="M59.4938 37.5965C58.1175 37.5965 56.9568 37.3544 55.9619 36.337L57.0729 35.1821C57.7527 35.9058 58.6647 36.0961 59.4938 36.0961C60.5218 36.0961 61.3343 35.7161 61.3343 34.8889C61.3343 34.3026 61.0193 33.9232 60.2068 33.8542L58.8637 33.7335C57.2884 33.5955 56.3765 32.854 56.3765 31.3192C56.3765 29.6119 57.7859 28.6467 59.5435 28.6467C60.8037 28.6467 61.8815 28.9227 62.6608 29.6291L61.5996 30.7507C61.069 30.2845 60.3228 30.112 59.5269 30.112C58.5155 30.112 58.0014 30.5776 58.0014 31.2335C58.0014 31.7503 58.2667 32.1469 59.1621 32.2337L60.4887 32.3539C62.0639 32.4919 62.9925 33.2679 62.9925 34.82C62.9925 36.648 61.5001 37.5965 59.4938 37.5965Z" fill="white"/>
<path fill-rule="evenodd" clip-rule="evenodd" d="M68.7128 37.4924C67.1376 37.4924 66.4086 36.3203 66.4086 35.0608V30.2494H65.4463V28.9048H66.4086V26.249H68.0993V28.9048H69.7243V30.2494H68.0993V34.9751C68.0993 35.6126 68.3983 35.9926 69.0279 35.9926H69.7243V37.4924H68.7128Z" fill="white"/>
<path fill-rule="evenodd" clip-rule="evenodd" d="M77.6499 33.6303H75.6773C74.6818 33.6303 74.1678 34.0959 74.1678 34.8886C74.1678 35.6819 74.6487 36.1308 75.7099 36.1308C76.3566 36.1308 76.8374 36.0791 77.2851 35.6307C77.5339 35.3715 77.6499 34.9581 77.6499 34.3373V33.6303ZM77.6832 37.4926V36.6999C77.0697 37.3374 76.4888 37.5967 75.4453 37.5967C74.4001 37.5967 73.7037 37.3374 73.1902 36.8034C72.7585 36.3372 72.5264 35.6646 72.5264 34.9236C72.5264 33.4572 73.5052 32.4053 75.4281 32.4053H77.65V31.7844C77.65 30.6807 77.1194 30.1461 75.8095 30.1461C74.8809 30.1461 74.4338 30.3709 73.9695 30.9917L72.8585 29.9053C73.6545 28.9395 74.4835 28.6464 75.8758 28.6464C78.1807 28.6464 79.3414 29.6638 79.3414 31.647V37.4926H77.6832Z" fill="white"/>
<path fill-rule="evenodd" clip-rule="evenodd" d="M83.2723 37.4926H84.9637V28.7498H83.2723V37.4926ZM83.2227 27.0252H85.0129V25.1627H83.2227V27.0252Z" fill="white"/>
<path fill-rule="evenodd" clip-rule="evenodd" d="M94.0993 37.4925V32.1637C94.0993 30.8019 93.3525 30.2156 92.4074 30.2156C91.4628 30.2156 90.6663 30.8191 90.6663 32.1637V37.4925H88.9756V28.7497H90.6337V29.6286C91.2135 28.9745 92.0266 28.6462 92.8717 28.6462C93.7345 28.6462 94.4469 28.9394 94.9444 29.4395C95.5911 30.0948 95.79 30.922 95.79 31.9056V37.4925H94.0993Z" fill="white"/>
<path fill-rule="evenodd" clip-rule="evenodd" d="M104.213 33.6303H102.24C101.246 33.6303 100.731 34.0959 100.731 34.8886C100.731 35.6819 101.212 36.1308 102.273 36.1308C102.92 36.1308 103.401 36.0791 103.849 35.6307C104.097 35.3715 104.213 34.9581 104.213 34.3373V33.6303ZM104.247 37.4926V36.6999C103.633 37.3374 103.053 37.5967 102.008 37.5967C100.964 37.5967 100.267 37.3374 99.7531 36.8034C99.322 36.3372 99.0898 35.6646 99.0898 34.9236C99.0898 33.4572 100.068 32.4053 101.992 32.4053H104.214V31.7844C104.214 30.6807 103.683 30.1461 102.373 30.1461C101.444 30.1461 100.997 30.3709 100.532 30.9917L99.4215 29.9053C100.217 28.9395 101.046 28.6464 102.439 28.6464C104.744 28.6464 105.905 29.6638 105.905 31.647V37.4926H104.247Z" fill="white"/>
<path fill-rule="evenodd" clip-rule="evenodd" d="M113.284 30.2154C111.758 30.2154 111.526 31.5611 111.526 33.1126C111.526 34.6641 111.758 36.027 113.284 36.027C114.809 36.027 115.024 34.6641 115.024 33.1126C115.024 31.5611 114.809 30.2154 113.284 30.2154ZM115.771 36.8197C115.307 37.3026 114.561 37.5963 113.714 37.5963C112.803 37.5963 112.123 37.3543 111.493 36.5616V37.4923H109.835V25.2142H111.526V29.629C112.14 28.8702 112.836 28.6466 113.732 28.6466C114.577 28.6466 115.307 28.9392 115.771 29.4221C116.616 30.3016 116.716 31.7847 116.716 33.1126C116.716 34.441 116.616 35.9408 115.771 36.8197Z" fill="white"/>
<path fill-rule="evenodd" clip-rule="evenodd" d="M122.585 37.4924C120.977 37.4924 120.28 36.372 120.28 35.0787V25.2144H121.972V34.9752C121.972 35.6477 122.203 35.9927 122.884 35.9927H123.63V37.4924H122.585Z" fill="white"/>
<path fill-rule="evenodd" clip-rule="evenodd" d="M131.191 31.2158C130.926 30.5605 130.329 30.1121 129.533 30.1121C128.738 30.1121 128.123 30.5605 127.858 31.2158C127.692 31.613 127.659 31.8711 127.643 32.4052H131.423C131.407 31.8711 131.357 31.613 131.191 31.2158ZM127.643 33.6301C127.643 35.1305 128.406 36.079 129.782 36.079C130.727 36.079 131.225 35.803 131.821 35.1822L132.899 36.2342C132.037 37.1309 131.225 37.5965 129.749 37.5965C127.643 37.5965 125.969 36.4405 125.969 33.1128C125.969 30.2845 127.378 28.6462 129.533 28.6462C131.788 28.6462 133.098 30.3708 133.098 32.8541V33.6301H127.643Z" fill="white"/>
<path fill-rule="evenodd" clip-rule="evenodd" d="M139.381 37.5965C138.005 37.5965 136.844 37.3544 135.85 36.337L136.961 35.1821C137.641 35.9058 138.552 36.0961 139.381 36.0961C140.41 36.0961 141.222 35.7161 141.222 34.8889C141.222 34.3026 140.907 33.9232 140.094 33.8542L138.751 33.7335C137.176 33.5955 136.264 32.854 136.264 31.3192C136.264 29.6119 137.674 28.6467 139.431 28.6467C140.691 28.6467 141.769 28.9227 142.549 29.6291L141.487 30.7507C140.957 30.2845 140.211 30.112 139.415 30.112C138.403 30.112 137.889 30.5776 137.889 31.2335C137.889 31.7503 138.154 32.1469 139.05 32.2337L140.376 32.3539C141.952 32.4919 142.88 33.2679 142.88 34.82C142.88 36.648 141.388 37.5965 139.381 37.5965Z" fill="white"/>
</svg>
